# xmcd
# Copyright (C) 1995-1998 Ti Kan
#
# Track frame offsets:
#       150
#       9718
#       26955
#       38448
#       54005
#       68779
#       77686
#       92390
#       106338
#       119108
#       136597
#       152283
#       164775
#       176914
#       191990
#       201765
#       224959
#       238538
#       252695
#       270393
#       297885
#
# Disc length: 4134 seconds
#
# Revision: 0
# Processed by: cddbd v1.5.2PL0 Copyright (c) Steve Scherf et al.
# Submitted via: CD-Import v1.0
#
DISCID=31102415
DTITLE=Seeed - Seeed Live
DYEAR=2006
DGENRE=
TTITLE0=Wir Sind Seeed - Reeemix (Berlin Wuhlheide 2004)
TTITLE1=Aufstehn (Berlin Arena 2006)
TTITLE2=Stand Up (Berlin Arena 2006)
TTITLE3=Schwinger (Das Fest Karlsruhe 2006)
TTITLE4=She Got Me Twisted (Berlin Arena 2006)
TTITLE5=Please (Dresden 2006)
TTITLE6=Waterpumpee (Berlin Wuhlheide 2004)
TTITLE7=Release (Dresden 2006)
TTITLE8=Shake Baby Shake (Berlin Wuhlheide 2004)
TTITLE9=Goose Bumps - Fire In The Morning (Berlin Arena 2006)
TTITLE10=Music Monks (Berlin Arena 2006)
TTITLE11=Grosshirn (Berlin Arena 2006)
TTITLE12=Pychodelic Kingdom (Berlin Arena 2006)
TTITLE13=Next...!! (Berlin Arena 2006)
TTITLE14=Same Jam (Berlin Arena 2006)
TTITLE15=Ding (Das Fest Karlsruhe 2006)
TTITLE16=Dancehall Caballeros (Dresden 2006)
TTITLE17=King Rodriguez (Berlin Arena 2006)
TTITLE18=Respectness (Oberhausen 2006)
TTITLE19=Dickes B (Das Fest Karlsruhe 2006)
TTITLE20=Pressure (Berlin Wuhlheide 2004)
EXTD=
EXTT0=
EXTT1=
EXTT2=
EXTT3=
EXTT4=
EXTT5=
EXTT6=
EXTT7=
EXTT8=
EXTT9=
EXTT10=
EXTT11=
EXTT12=
EXTT13=
EXTT14=
EXTT15=
EXTT16=
EXTT17=
EXTT18=
EXTT19=
EXTT20=
PLAYORDER=
